<?xml version="1.0" standalone="no"?><!DOCTYPE svg PUBLIC "-//W3C//DTD SVG 1.1//EN" "http://www.w3.org/Graphics/SVG/1.1/DTD/svg11.dtd"><svg t="1563804647098" class="icon" viewBox="0 0 1024 1024" version="1.1" xmlns="http://www.w3.org/2000/svg" p-id="708" xmlns:xlink="http://www.w3.org/1999/xlink" width="200" height="200"><defs><style type="text/css"></style></defs><path d="M0 1024l512 0L512 0 0 0 0 1024zM320 128l128 0 0 128-128 0L320 128zM320 384l128 0 0 128-128 0L320 384zM320 640l128 0 0 128-128 0L320 640zM64 128l128 0 0 128L64 256 64 128zM64 384l128 0 0 128L64 512 64 384zM64 640l128 0 0 128L64 768 64 640zM576 320 1024 320 1024 384 576 384zM576 1024 704 1024 704 768 896 768 896 1024 1024 1024 1024 448 576 448z" p-id="709"></path></svg>